# xmcd
#
# Track frame offsets:
#	150
#	12610
#	28797
#	47611
#	60992
#	81228
#	99351
#	117846
#	134728
#	152366
#	169021
#	196083
#	209481
#
# Disc length: 2981 seconds
# Revision: 0
# Processed by: cddbd v1.5.2PL0 Copyright (c) Steve Scherf et al.
# Submitted via: dBpowerAMP V12.0
#
DISCID=a70ba30d
DTITLE=Various Artist - Album Tony Cini's Blues Explosion Volume 5
DYEAR=2014
DGENRE=Blues
TTITLE0=19-Twenty - Y.O.L.O
TTITLE1=Zevon and The Werewolves Of Melbourne - I'm On My Way
TTITLE2=Blue Eyes Cry - Shake Down
TTITLE3=Lily King - Drinking Song
TTITLE4=Transvaal Diamond Syndicate - Estranged Blues
TTITLE5=Morgan Bain - Deep Hollow Howl
TTITLE6=Toby - Won't Be A Fool
TTITLE7=The Lachy Doley Group - Love Blinded Fool
TTITLE8=Liza Ohlback - Trouble Goin' Down
TTITLE9=Stormcellar - Swamp Monster
TTITLE10=Laura Zarb - Echo
TTITLE11=Johnny Cass Band - Sun Goes Down
TTITLE12=Nick Rheinberger - Too Much Information
EXTD=
EXTT0=
EXTT1=
EXTT2=
EXTT3=
EXTT4=
EXTT5=
EXTT6=
EXTT7=
EXTT8=
EXTT9=
EXTT10=
EXTT11=
EXTT12=
PLAYORDER=
